<svg width="24" height="24" viewBox="0 0 24 24" fill="none" xmlns="http://www.w3.org/2000/svg">
<path d="M12.7855 17.5809C12.8904 17.6854 12.9736 17.8096 13.0304 17.9464C13.0871 18.0831 13.1164 18.2297 13.1164 18.3778C13.1164 18.5259 13.0871 18.6725 13.0304 18.8092C12.9736 18.946 12.8904 19.0702 12.7855 19.1747L12.2286 19.7316C11.1734 20.7868 9.74217 21.3796 8.24985 21.3796C6.75753 21.3796 5.32633 20.7868 4.2711 19.7316C3.21587 18.6763 2.62305 17.2451 2.62305 15.7528C2.62305 14.2605 3.21587 12.8293 4.2711 11.7741L6.53235 9.51375C7.54624 8.49735 8.91039 7.90708 10.3454 7.86386C11.7804 7.82063 13.1776 8.32772 14.2508 9.28125C14.3616 9.37974 14.4519 9.49909 14.5166 9.63248C14.5813 9.76588 14.619 9.91071 14.6277 10.0587C14.6364 10.2067 14.6159 10.355 14.5673 10.495C14.5187 10.6351 14.443 10.7642 14.3445 10.875C14.246 10.9858 14.1267 11.0761 13.9933 11.1408C13.8599 11.2055 13.7151 11.2432 13.5671 11.2519C13.4191 11.2607 13.2708 11.2401 13.1308 11.1915C12.9907 11.1429 12.8616 11.0672 12.7508 10.9687C12.1072 10.3972 11.2696 10.0931 10.4092 10.1187C9.54884 10.1443 8.73078 10.4977 8.12235 11.1066L5.86297 13.3641C5.22994 13.9971 4.8743 14.8557 4.8743 15.7509C4.8743 16.6462 5.22994 17.5048 5.86297 18.1378C6.49601 18.7708 7.3546 19.1265 8.24985 19.1265C9.1451 19.1265 10.0037 18.7708 10.6367 18.1378L11.1936 17.5809C11.2981 17.4763 11.4222 17.3934 11.5587 17.3367C11.6953 17.2801 11.8417 17.251 11.9895 17.251C12.1374 17.251 12.2838 17.2801 12.4203 17.3367C12.5569 17.3934 12.681 17.4763 12.7855 17.5809ZM19.7305 4.26843C18.6744 3.21483 17.2435 2.62312 15.7517 2.62312C14.2599 2.62312 12.8291 3.21483 11.773 4.26843L11.2161 4.82531C11.0048 5.03665 10.886 5.3233 10.886 5.62218C10.886 5.92107 11.0048 6.20771 11.2161 6.41906C11.4274 6.6304 11.7141 6.74913 12.013 6.74913C12.3119 6.74913 12.5985 6.6304 12.8098 6.41906L13.3667 5.86218C13.9998 5.22914 14.8583 4.87351 15.7536 4.87351C16.6489 4.87351 17.5074 5.22914 18.1405 5.86218C18.7735 6.49522 19.1292 7.35381 19.1292 8.24906C19.1292 9.14431 18.7735 10.0029 18.1405 10.6359L15.8802 12.8972C15.2712 13.5058 14.4527 13.8586 13.5921 13.8836C12.7315 13.9085 11.8939 13.6036 11.2508 13.0312C11.14 12.9328 11.0109 12.8571 10.8708 12.8085C10.7307 12.7599 10.5825 12.7393 10.4345 12.748C10.2865 12.7568 10.1417 12.7945 10.0083 12.8592C9.87488 12.9239 9.75553 13.0142 9.65704 13.125C9.55855 13.2358 9.48284 13.3649 9.43425 13.505C9.38566 13.645 9.36513 13.7933 9.37384 13.9413C9.38254 14.0893 9.42031 14.2341 9.48499 14.3675C9.54967 14.5009 9.63998 14.6203 9.75079 14.7187C10.8233 15.6721 12.2195 16.1795 13.6538 16.1371C15.0881 16.0948 16.452 15.5059 17.4664 14.4909L19.7277 12.2306C20.7825 11.1748 21.3753 9.74352 21.3758 8.25105C21.3763 6.75857 20.7846 5.32689 19.7305 4.27031V4.26843Z" fill="white"/>
</svg>
